<svg id="Layer_1" data-name="Layer 1" xmlns="http://www.w3.org/2000/svg" viewBox="0 0 2000 1764.61"><defs><style>.cls-1{fill:#231f20;}</style></defs><title>Icon simplu Edi 5</title><g id="_5" data-name="5"><path class="cls-1" d="M881.77,1882.31a35.19,35.19,0,0,1-25-10.38L10.35,1025.56a35.44,35.44,0,0,1,0-50.06L246.83,739,620.18,365.67a35.4,35.4,0,0,1,50.06,0L906.54,602a35,35,0,0,1,10.62,25.21V1007.1a28.87,28.87,0,0,1-28.83,28.83H593.88l312.84,312.84a35.14,35.14,0,0,1,10.37,25l.07,473.11a35.41,35.41,0,0,1-35.39,35.41Zm-609.9-1062a14.91,14.91,0,0,0-10.64,4.41L96.08,989.9a15,15,0,0,0,0,21.26l740.36,740.36a5.56,5.56,0,0,0,4,1.72,6.13,6.13,0,0,0,4.14-1.63,5.49,5.49,0,0,0,1.75-4.19L846.29,1400a27.69,27.69,0,0,0-8.16-19.7L282.51,824.69A14.93,14.93,0,0,0,271.87,820.28ZM831.38,965.13a15,15,0,0,0,15-15V712.6L593.88,965.13ZM645.21,446.93a14.75,14.75,0,0,0-10.51,4.36L332.46,753.46a14.86,14.86,0,0,0,0,21L497.9,939.94a14.87,14.87,0,0,0,21,0L821.11,637.7a14.86,14.86,0,0,0,0-21L655.73,451.29A14.79,14.79,0,0,0,645.21,446.93Z" transform="translate(0 -117.69)"/><path class="cls-1" d="M1354.79,1645.75a35.15,35.15,0,0,1-25-10.37L1093.48,1399a35.5,35.5,0,0,1-4.71-5.73l-.25-.38-.36-.7a30.46,30.46,0,0,1-2.61-5,12.89,12.89,0,0,1-.52-1.59,36.63,36.63,0,0,1-1.46-5,18.22,18.22,0,0,1-.27-2.34l-.15-1.37a22.34,22.34,0,0,1-.25-3.09V626.54l-1.13-473.36a35.4,35.4,0,0,1,60.43-25.12l611,610.89L1989.65,975.5a35.44,35.44,0,0,1,0,50.06l-609.83,609.82A35.13,35.13,0,0,1,1354.79,1645.75Zm136.86-586.11a21.72,21.72,0,0,0-15.44,6.39l-292.4,292.34a21.87,21.87,0,0,0,0,30.88l155.54,155.59a21.84,21.84,0,0,0,30.89,0l292.39-292.38a21.88,21.88,0,0,0,0-30.89L1507.1,1066A21.74,21.74,0,0,0,1491.65,1059.64Zm-336.6-345.19a1.34,1.34,0,0,0-1.35,1.32v569.45a1.35,1.35,0,0,0,1.36,1.32,1.15,1.15,0,0,0,.86-.4l270.4-270.34a21.61,21.61,0,0,0,0-30.54l-270.4-270.41A1.2,1.2,0,0,0,1155.05,714.45Zm557.86,457.28a21.53,21.53,0,0,0,30.44,0l156-156a21.54,21.54,0,0,0,0-30.44L1156,242a1.75,1.75,0,0,0-1.27-.57,2.11,2.11,0,0,0-1.47.61,1.74,1.74,0,0,0-.5,1.31l.89,369.14Z" transform="translate(0 -117.69)"/></g></svg>